<svg width="15" height="15" viewBox="0 0 15 15" fill="none" xmlns="http://www.w3.org/2000/svg">
<path d="M7.5 0C5.46469 0 5.20875 0.009375 4.40906 0.045C3.60938 0.0825 3.06469 0.208125 2.5875 0.39375C2.08696 0.582018 1.63359 0.877337 1.25906 1.25906C0.877571 1.63378 0.582288 2.0871 0.39375 2.5875C0.208125 3.06375 0.0815625 3.60937 0.045 4.40625C0.009375 5.20781 0 5.46281 0 7.50094C0 9.53719 0.009375 9.79219 0.045 10.5919C0.0825 11.3906 0.208125 11.9353 0.39375 12.4125C0.585938 12.9056 0.841875 13.3237 1.25906 13.7409C1.67531 14.1581 2.09344 14.415 2.58656 14.6062C3.06469 14.7919 3.60844 14.9184 4.40719 14.955C5.20781 14.9906 5.46281 15 7.5 15C9.53719 15 9.79125 14.9906 10.5919 14.955C11.3897 14.9175 11.9362 14.7919 12.4134 14.6062C12.9137 14.4179 13.3667 14.1226 13.7409 13.7409C14.1581 13.3237 14.4141 12.9056 14.6062 12.4125C14.7909 11.9353 14.9175 11.3906 14.955 10.5919C14.9906 9.79219 15 9.53719 15 7.5C15 5.46281 14.9906 5.20781 14.955 4.40719C14.9175 3.60938 14.7909 3.06375 14.6062 2.5875C14.4177 2.08709 14.1225 1.63376 13.7409 1.25906C13.3665 0.877196 12.9131 0.581855 12.4125 0.39375C11.9344 0.208125 11.3888 0.0815625 10.5909 0.045C9.79031 0.009375 9.53625 0 7.49813 0H7.50094H7.5ZM6.82781 1.35188H7.50094C9.50344 1.35188 9.74062 1.35844 10.5309 1.395C11.2622 1.42781 11.6597 1.55062 11.9241 1.65281C12.2738 1.78875 12.5241 1.95187 12.7866 2.21438C13.0491 2.47688 13.2113 2.72625 13.3472 3.07687C13.4503 3.34031 13.5722 3.73781 13.605 4.46906C13.6416 5.25938 13.6491 5.49656 13.6491 7.49813C13.6491 9.49969 13.6416 9.73781 13.605 10.5281C13.5722 11.2594 13.4494 11.6559 13.3472 11.9203C13.2269 12.246 13.035 12.5404 12.7856 12.7819C12.5231 13.0444 12.2738 13.2066 11.9231 13.3425C11.6606 13.4456 11.2631 13.5675 10.5309 13.6013C9.74062 13.6369 9.50344 13.6453 7.50094 13.6453C5.49844 13.6453 5.26031 13.6369 4.47 13.6013C3.73875 13.5675 3.34219 13.4456 3.07781 13.3425C2.75203 13.2224 2.45731 13.0309 2.21531 12.7819C1.9657 12.54 1.77349 12.2453 1.65281 11.9194C1.55062 11.6559 1.42781 11.2584 1.395 10.5272C1.35938 9.73688 1.35188 9.49969 1.35188 7.49625C1.35188 5.49375 1.35938 5.2575 1.395 4.46719C1.42875 3.73594 1.55063 3.33844 1.65375 3.07406C1.78969 2.72438 1.95281 2.47406 2.21531 2.21156C2.47781 1.94906 2.72719 1.78688 3.07781 1.65094C3.34219 1.54781 3.73875 1.42594 4.47 1.39219C5.16188 1.36031 5.43 1.35094 6.82781 1.35V1.35188ZM11.5041 2.59687C11.3859 2.59687 11.2688 2.62015 11.1596 2.66538C11.0505 2.71061 10.9512 2.77691 10.8677 2.86048C10.7841 2.94405 10.7178 3.04327 10.6726 3.15246C10.6273 3.26165 10.6041 3.37869 10.6041 3.49688C10.6041 3.61506 10.6273 3.7321 10.6726 3.84129C10.7178 3.95048 10.7841 4.0497 10.8677 4.13327C10.9512 4.21684 11.0505 4.28314 11.1596 4.32837C11.2688 4.3736 11.3859 4.39687 11.5041 4.39687C11.7428 4.39687 11.9717 4.30205 12.1405 4.13327C12.3092 3.96449 12.4041 3.73557 12.4041 3.49688C12.4041 3.25818 12.3092 3.02926 12.1405 2.86048C11.9717 2.6917 11.7428 2.59687 11.5041 2.59687ZM7.50094 3.64875C6.99007 3.64078 6.48271 3.73452 6.00842 3.92451C5.53412 4.1145 5.10236 4.39694 4.73827 4.7554C4.37417 5.11385 4.08503 5.54116 3.88766 6.01243C3.6903 6.48371 3.58866 6.98953 3.58866 7.50047C3.58866 8.0114 3.6903 8.51723 3.88766 8.98851C4.08503 9.45978 4.37417 9.88708 4.73827 10.2455C5.10236 10.604 5.53412 10.8864 6.00842 11.0764C6.48271 11.2664 6.99007 11.3602 7.50094 11.3522C8.51207 11.3364 9.47645 10.9237 10.1859 10.203C10.8954 9.48243 11.293 8.51172 11.293 7.50047C11.293 6.48921 10.8954 5.51851 10.1859 4.79789C9.47645 4.07727 8.51207 3.66453 7.50094 3.64875ZM7.50094 4.99969C8.16406 4.99969 8.80003 5.26311 9.26893 5.73201C9.73783 6.20091 10.0013 6.83688 10.0013 7.5C10.0013 8.16312 9.73783 8.79909 9.26893 9.26799C8.80003 9.73689 8.16406 10.0003 7.50094 10.0003C6.83781 10.0003 6.20185 9.73689 5.73295 9.26799C5.26405 8.79909 5.00063 8.16312 5.00063 7.5C5.00063 6.83688 5.26405 6.20091 5.73295 5.73201C6.20185 5.26311 6.83781 4.99969 7.50094 4.99969Z" fill="#0F3886"/>
</svg>
