<svg width="14" height="14" viewBox="0 0 14 14" fill="none" xmlns="http://www.w3.org/2000/svg">
<path d="M0 1.00275C0 0.448875 0.46025 0 1.02812 0H12.9719C13.5397 0 14 0.448875 14 1.00275V12.9973C14 13.5511 13.5397 14 12.9719 14H1.02812C0.46025 14 0 13.5511 0 12.9973V1.00275ZM4.32512 11.7198V5.39788H2.22425V11.7198H4.32512ZM3.27513 4.53425C4.0075 4.53425 4.46337 4.0495 4.46337 3.44225C4.45025 2.82188 4.00838 2.35025 3.28913 2.35025C2.56988 2.35025 2.1 2.82275 2.1 3.44225C2.1 4.0495 2.55588 4.53425 3.26112 4.53425H3.27513V4.53425ZM7.56963 11.7198V8.18913C7.56963 8.00013 7.58362 7.81112 7.63962 7.67637C7.791 7.29925 8.13663 6.90812 8.71763 6.90812C9.478 6.90812 9.78162 7.48738 9.78162 8.33788V11.7198H11.8825V8.09375C11.8825 6.15125 10.8465 5.24825 9.464 5.24825C8.34925 5.24825 7.84963 5.86075 7.56963 6.29212V6.314H7.55563C7.56027 6.3067 7.56494 6.2994 7.56963 6.29212V5.39788H5.46962C5.49587 5.99113 5.46962 11.7198 5.46962 11.7198H7.56963Z" fill="#0F3886"/>
</svg>
