<svg width="205" height="49" viewBox="0 0 205 49" fill="none" xmlns="http://www.w3.org/2000/svg">
<path d="M6.10107 15.2622V35.4111C8.9152 35.4111 11.2223 34.5054 13.0225 32.6938C15.0505 30.6659 16.0645 28.2106 16.0645 25.3281C16.0645 22.457 15.0505 20.0018 13.0225 17.9624C11.2223 16.1623 8.9152 15.2622 6.10107 15.2622ZM5.16113 11.6562C9.60449 11.679 13.068 12.938 15.5518 15.4331C18.2747 18.1789 19.6362 21.4772 19.6362 25.3281C19.6362 29.1904 18.2747 32.4888 15.5518 35.2231C13.068 37.7183 9.60449 38.9772 5.16113 39H2.56348V11.6562H5.16113ZM38.9648 11.6562H42.5195V30.9165C42.2119 33.1154 41.3062 34.9725 39.8022 36.4878C37.9793 38.3107 35.7861 39.2222 33.2227 39.2222C30.6592 39.2222 28.466 38.3164 26.6431 36.5049C24.8315 34.682 23.9258 32.4888 23.9258 29.9253V11.6562H27.4805V29.9253C27.4805 31.4976 28.0387 32.8477 29.1553 33.9756C30.2832 35.0921 31.639 35.6504 33.2227 35.6504C34.8177 35.6504 36.1735 35.0921 37.29 33.9756C38.4066 32.859 38.9648 31.509 38.9648 29.9253V11.6562ZM51.7139 11.6562L60.5835 26.9858L69.4189 11.6562H72.6489V39H69.1113V19.2441L60.5835 34.0098L52.0215 19.2441V39H48.4839V11.6562H51.7139ZM85.5688 24.9692C83.632 24.3198 82.0597 23.397 80.8521 22.2007C79.6558 20.993 79.0576 19.5005 79.0576 17.7231C79.0576 15.98 79.6785 14.4818 80.9204 13.2285C82.1737 11.9753 83.689 11.3486 85.4663 11.3486C87.2209 11.3486 88.7248 11.9696 89.978 13.2114C90.6844 13.895 91.2769 14.9831 91.7554 16.4756L88.5425 17.7402C88.1551 16.6921 87.8019 16.0085 87.4829 15.6895C86.9246 15.1426 86.2524 14.8691 85.4663 14.8691C84.6688 14.8691 83.9909 15.1483 83.4326 15.7065C82.8743 16.2534 82.5952 16.9256 82.5952 17.7231C82.5952 18.5207 82.8743 19.1986 83.4326 19.7568C84.0592 20.3721 84.9251 20.936 86.0303 21.4487C88.1722 22.1437 89.9894 23.2375 91.4819 24.73C93.1567 26.382 93.9941 28.3872 93.9941 30.7456C93.9941 33.104 93.1567 35.1206 91.4819 36.7954C89.8185 38.4588 87.8133 39.2905 85.4663 39.2905C83.1079 39.2905 81.097 38.4531 79.4336 36.7783C78.1006 35.4453 77.2575 33.6053 76.9043 31.2583L80.3394 30.0107C80.5558 32.0273 81.0856 33.4572 81.9287 34.3003C82.9085 35.2801 84.0877 35.77 85.4663 35.77C86.8449 35.77 88.0241 35.2801 89.0039 34.3003C89.9837 33.3205 90.4736 32.1356 90.4736 30.7456C90.4736 29.367 89.9837 28.1878 89.0039 27.208C88.0697 26.2738 86.9246 25.5275 85.5688 24.9692ZM97.4463 39V11.6562H100.984V35.4453H110.759V39H97.4463ZM127.183 11.2974C131.045 11.2974 134.343 12.6646 137.078 15.3989C139.812 18.1333 141.179 21.4316 141.179 25.2939C141.179 29.1562 139.812 32.4546 137.078 35.189C134.343 37.9233 131.045 39.2905 127.183 39.2905C123.32 39.2905 120.022 37.9233 117.288 35.189C114.553 32.4546 113.186 29.1562 113.186 25.2939C113.186 21.4316 114.553 18.1333 117.288 15.3989C120.022 12.6646 123.32 11.2974 127.183 11.2974ZM127.183 14.8691C124.3 14.8691 121.839 15.8888 119.8 17.9282C117.772 19.9562 116.758 22.4115 116.758 25.2939C116.758 28.1764 117.778 30.6374 119.817 32.6768C121.856 34.7161 124.312 35.7358 127.183 35.7358C130.065 35.7358 132.52 34.7161 134.548 32.6768C136.588 30.6374 137.607 28.1764 137.607 25.2939C137.607 22.4115 136.588 19.9562 134.548 17.9282C132.52 15.8888 130.065 14.8691 127.183 14.8691ZM167.07 32.4888L169.719 34.8643C166.484 37.8151 163.06 39.2905 159.448 39.2905C155.586 39.2905 152.293 37.929 149.57 35.2061C146.847 32.4831 145.486 29.1904 145.486 25.3281C145.486 21.4772 146.847 18.1846 149.57 15.4502C152.293 12.7158 155.586 11.3486 159.448 11.3486C163.06 11.3486 166.484 12.8241 169.719 15.7749L167.07 18.1846C164.632 16.0199 162.091 14.9375 159.448 14.9375C156.589 14.9375 154.139 15.9515 152.1 17.9795C150.072 20.0075 149.058 22.457 149.058 25.3281C149.058 28.2106 150.072 30.6659 152.1 32.6938C154.139 34.7218 156.589 35.7358 159.448 35.7358C162.091 35.7358 164.632 34.6535 167.07 32.4888ZM177.512 26.0972V39H173.975V11.6562H177.512V20.2695L183.972 11.6562H188.45L180.059 22.9014L190.5 39H186.211L177.751 25.8066L177.512 26.0972Z" fill="#4400B4"/>
<circle cx="199" cy="6" r="6" fill="#00AB97"/>
</svg>
