<svg width="28" height="28" viewBox="0 0 28 28" fill="none" xmlns="http://www.w3.org/2000/svg">
<path d="M10.5656 19.3594C10.4572 19.3217 10.3424 19.306 10.2279 19.3132C10.1134 19.3204 10.0014 19.3503 9.89861 19.4012C9.79578 19.4521 9.70411 19.523 9.62897 19.6097C9.55382 19.6964 9.4967 19.7972 9.46094 19.9063C8.73906 22.0609 6.40937 22.7281 5.06406 22.9359C5.27187 21.5906 5.93906 19.2609 8.09375 18.5391C8.21173 18.5105 8.32248 18.4577 8.41894 18.384C8.5154 18.3103 8.59548 18.2173 8.65407 18.111C8.71267 18.0047 8.7485 17.8873 8.75929 17.7664C8.77008 17.6455 8.75559 17.5237 8.71674 17.4087C8.6779 17.2937 8.61555 17.188 8.53365 17.0984C8.45176 17.0088 8.35212 16.9372 8.24106 16.8882C8.13 16.8391 8.00996 16.8138 7.88857 16.8137C7.76718 16.8135 7.64709 16.8387 7.53594 16.8875C5.74219 17.4781 4.42969 18.9 3.72969 20.9891C3.41953 21.9288 3.24999 22.9092 3.22656 23.8984C3.22656 24.1305 3.31875 24.3531 3.48284 24.5172C3.64694 24.6813 3.8695 24.7734 4.10156 24.7734C5.09085 24.75 6.07124 24.5805 7.01094 24.2703C9.1 23.5703 10.5219 22.2578 11.1125 20.4641C11.1502 20.3557 11.1659 20.2409 11.1587 20.1264C11.1515 20.0118 11.1216 19.8999 11.0707 19.7971C11.0198 19.6942 10.9489 19.6026 10.8622 19.5274C10.7755 19.4523 10.6747 19.3951 10.5656 19.3594Z" fill="white"/>
<path d="M24.8938 4.57187C24.8425 4.20126 24.6716 3.85755 24.407 3.59299C24.1425 3.32844 23.7988 3.15752 23.4282 3.10624C22.1922 2.92031 18.9875 2.83281 15.8594 5.96093L14.875 6.93437H8.17034C7.707 6.93753 7.26332 7.12207 6.93441 7.44843L3.40159 10.9922C3.17758 11.215 3.01849 11.4946 2.9414 11.801C2.86432 12.1074 2.87217 12.429 2.96409 12.7312C3.0553 13.0357 3.2277 13.3096 3.46278 13.5235C3.69787 13.7374 3.98677 13.8832 4.29847 13.9453L8.61878 14.8094L13.1907 19.3812L14.0547 23.7016C14.1168 24.0133 14.2627 24.3022 14.4766 24.5372C14.6904 24.7723 14.9643 24.9447 15.2688 25.0359C15.4314 25.088 15.6012 25.1138 15.7719 25.1125C16.0019 25.1145 16.23 25.0701 16.4424 24.9817C16.6548 24.8934 16.8471 24.763 17.0078 24.5984L20.5516 21.0656C20.878 20.7367 21.0625 20.293 21.0657 19.8297V13.125L22.0391 12.1406C25.1672 9.01249 25.0797 5.80781 24.8938 4.57187ZM8.17034 8.68437H13.125L8.76097 13.0484L4.63753 12.2281L8.17034 8.68437ZM19.3157 19.8297L15.7719 23.3625L14.9516 19.2391L19.3157 14.875V19.8297Z" fill="white"/>
</svg>
