<svg width="18" height="14" viewBox="0 0 18 14" fill="none" xmlns="http://www.w3.org/2000/svg">
<path d="M5.41233 14C11.9144 14 15.4713 8.61244 15.4713 3.94854C15.4713 3.79777 15.4713 3.64486 15.4649 3.4941C16.1574 2.9928 16.755 2.37217 17.2298 1.66127C16.583 1.94648 15.8975 2.13445 15.1957 2.21909C15.935 1.77718 16.4887 1.08189 16.7539 0.262425C16.0593 0.673921 15.299 0.96279 14.5065 1.11638C13.9736 0.548897 13.2685 0.172956 12.5003 0.0467905C11.7322 -0.0793753 10.9439 0.0512745 10.2575 0.418503C9.57113 0.785731 9.025 1.36904 8.70371 2.07809C8.38242 2.78713 8.3039 3.58233 8.48032 4.34052C7.07473 4.27004 5.69965 3.90489 4.44427 3.26876C3.18889 2.63263 2.08124 1.73972 1.19317 0.647943C0.742327 1.42661 0.604739 2.34767 0.808345 3.22409C1.01195 4.10052 1.54148 4.8666 2.28942 5.36677C1.72895 5.34773 1.18081 5.19723 0.689194 4.92741V4.97587C0.69016 5.79157 0.97274 6.58193 1.48917 7.21333C2.0056 7.84474 2.7242 8.27848 3.5235 8.44122C3.22011 8.5248 2.90671 8.56647 2.59202 8.56506C2.37016 8.56573 2.14876 8.54518 1.93082 8.50368C2.15673 9.20586 2.59662 9.81979 3.18886 10.2595C3.78111 10.6992 4.49606 10.9426 5.23357 10.9557C3.98069 11.9397 2.43307 12.4734 0.839955 12.4709C0.559239 12.472 0.278718 12.4559 0 12.4224C1.61693 13.4532 3.49475 14.0006 5.41233 14Z" fill="#0F3886"/>
</svg>
