<svg width="17" height="12" viewBox="0 0 17 12" fill="none" xmlns="http://www.w3.org/2000/svg">
<path d="M8.46946 0H8.56309C9.42781 0.00315593 13.8093 0.0347154 14.9907 0.352412C15.3478 0.449371 15.6732 0.638363 15.9345 0.9005C16.1957 1.16264 16.3835 1.48874 16.4792 1.84622C16.5855 2.24597 16.6601 2.77511 16.7106 3.32109L16.7212 3.43049L16.7443 3.70401L16.7527 3.81341C16.8211 4.77492 16.8295 5.67541 16.8306 5.87213V5.95103C16.8295 6.15511 16.82 7.11662 16.7443 8.1181L16.7359 8.22856L16.7264 8.33796C16.6738 8.93969 16.596 9.53722 16.4792 9.97694C16.3838 10.3346 16.1961 10.6608 15.9348 10.923C15.6735 11.1852 15.3479 11.3741 14.9907 11.4707C13.7704 11.799 9.13221 11.8221 8.48945 11.8232H8.34007C8.01501 11.8232 6.67058 11.8168 5.26093 11.7685L5.0821 11.7621L4.99057 11.7579L4.81069 11.7506L4.6308 11.7432C3.46311 11.6917 2.35117 11.6086 1.83885 11.4697C1.4817 11.3731 1.15619 11.1844 0.894942 10.9224C0.633693 10.6604 0.445877 10.3344 0.350308 9.97694C0.233539 9.53827 0.155692 8.93969 0.103094 8.33796L0.0946779 8.22751L0.0862621 8.1181C0.0343445 7.40528 0.00557533 6.69096 0 5.97628L0 5.84688C0.00210395 5.62071 0.0105198 4.83909 0.0673265 3.97647L0.0746903 3.86812L0.0778462 3.81341L0.0862621 3.70401L0.109406 3.43049L0.119925 3.32109C0.17042 2.77511 0.24511 2.24492 0.35136 1.84622C0.446768 1.4886 0.634512 1.16234 0.895772 0.900157C1.15703 0.637975 1.48262 0.449081 1.83991 0.352412C2.35222 0.215655 3.46416 0.131497 4.63185 0.0788981L4.81069 0.0715343L4.99163 0.0652227L5.0821 0.0620667L5.26198 0.0547029C6.26316 0.0224857 7.26474 0.00460015 8.26643 0.00105203H8.46946V0ZM6.73265 3.37684V8.44527L11.1057 5.91211L6.73265 3.37684Z" fill="#0F3886"/>
</svg>
